HIERARCHY
ROOT Hips
{
     OFFSET 1.88212 96.90440 -13.34250
     CHANNELS 6 Xposition Yposition Zposition Zrotation Xrotation Yrotation
     JOINT Spine
     {
          OFFSET 0.00000 11.89050 0.00000
          CHANNELS 3 Zrotation Xrotation Yrotation
          JOINT Spine1
          {
               OFFSET -0.00000 25.65740 0.12766
               CHANNELS 3 Zrotation Xrotation Yrotation
               JOINT HEad
               {
                    OFFSET 0.00000 8.73416 0.01134
                    CHANNELS 3 Zrotation Xrotation Yrotation
                    End Site
                    {
                         OFFSET -0.29000 12.77420 2.51395
                    }
               }
               JOINT LeftShoulder1
               {
                    OFFSET 8.99000 -0.36225 -0.22000
                    CHANNELS 3 Zrotation Xrotation Yrotation
                    JOINT LeftArm
                    {
                         OFFSET 10.28270 -0.00338 0.32212
                         CHANNELS 3 Zrotation Xrotation Yrotation
                         JOINT LeftForeArm
                         {
                              OFFSET 32.76690 0.09914 -1.42434
                              CHANNELS 3 Zrotation Xrotation Yrotation
                              JOINT LeftHand
                              {
                                   OFFSET 27.56430 0.08536 1.02216
                                   CHANNELS 3 Zrotation Xrotation Yrotation
                                   End Site
                                   {
                                        OFFSET 16.74430 -0.60000 1.50291
                                   }
                              }
                         }
                    }
               }
               JOINT RightShoulder
               {
                    OFFSET -8.99000 -0.36225 -0.22000
                    CHANNELS 3 Zrotation Xrotation Yrotation
                    JOINT RightArm
                    {
                         OFFSET -10.28270 -0.00338 0.32212
                         CHANNELS 3 Zrotation Xrotation Yrotation
                         JOINT RightForeArm
                         {
                              OFFSET -32.89710 0.09914 -1.42434
                              CHANNELS 3 Zrotation Xrotation Yrotation
                              JOINT RightHand
                              {
                                   OFFSET -27.49210 0.08536 1.02216
                                   CHANNELS 3 Zrotation Xrotation Yrotation
                                   End Site
                                   {
                                        OFFSET -16.63120 -0.60000 1.50291
                                   }
                              }
                         }
                    }
               }
          }
     }
     JOINT LeftUpLeg
     {
          OFFSET 8.94580 -8.66707 0.10165
          CHANNELS 3 Zrotation Xrotation Yrotation
          JOINT LeftLeg
          {
               OFFSET 0.00000 -44.42270 1.37270
               CHANNELS 3 Zrotation Xrotation Yrotation
               JOINT LeftFoot
               {
                    OFFSET -0.25355 -42.09240 -1.46059
                    CHANNELS 3 Zrotation Xrotation Yrotation
                    JOINT LeftToes
                    {
                         OFFSET -0.04000 -4.41509 8.49910
                         CHANNELS 3 Zrotation Xrotation Yrotation
                         End Site
                         {
                              OFFSET 0.08000 -0.04745 9.77979
                         }
                    }
               }
          }
     }
     JOINT RightUpLeg
     {
          OFFSET -8.94580 -8.66707 0.10165
          CHANNELS 3 Zrotation Xrotation Yrotation
          JOINT RightLeg
          {
               OFFSET 0.00000 -44.42270 1.37270
               CHANNELS 3 Zrotation Xrotation Yrotation
               JOINT RightFoot
               {
                    OFFSET 0.25355 -42.09240 -1.46059
                    CHANNELS 3 Zrotation Xrotation Yrotation
                    JOINT RightToes
                    {
                         OFFSET 0.04000 -4.41509 8.49910
                         CHANNELS 3 Zrotation Xrotation Yrotation
                         End Site
                         {
                              OFFSET -0.08000 -0.13745 9.77979
                         }
                    }
               }
          }
     }
}
MOTION
Frames: 10
Frame Time: 0.01667
-866.58539 93.08932 -205.70706 6.67213 27.72497 -157.94376 18.49653 18.64690 -6.58600 0.01430 0.00603 -0.02086 6.38264 13.76250 -18.09051 -0.27396 12.16673 3.51221 -85.47540 -18.81194 -80.94608 -38.94666 41.15394 -82.71346 16.57296 3.91893 -14.41787 18.38375 11.92278 -0.08302 85.30287 -32.79989 81.30885 6.84034 26.73024 84.16917 13.82704 11.98539 13.46432 24.74884 8.92039 -22.58856 -27.74283 -3.86180 57.56293 6.87344 -0.33207 -0.00172 -0.45361 -6.44974 -68.50800 -9.37038 22.14753 -6.94814 33.72633 41.40022 -13.80867 0.17756 -0.01368 -0.04729 -14.64189 54.66367 20.76454 
-866.12219 92.82208 -205.51488 7.45147 31.04126 -156.15707 18.59093 20.48018 -6.54660 0.01878 0.00979 -0.02185 11.93798 11.65594 -25.34501 2.08163 11.98618 1.41981 -81.68400 -12.64629 -79.26423 -34.05209 36.95895 -85.42065 16.72962 4.75955 -14.53367 22.21135 11.21262 -2.69123 84.14053 -33.62919 79.98626 4.57575 25.83617 83.53980 17.06626 11.28090 10.84249 27.59553 10.45569 -25.96976 -30.24942 -6.54100 61.08097 7.42212 -0.03496 -0.02024 1.15851 -7.70537 -72.34405 -7.28827 21.84781 -12.55986 33.23156 47.48682 -13.29904 -1.38049 0.00637 -0.02466 -12.21694 49.79888 20.35209 
-865.71021 92.57626 -205.34679 7.81701 33.86613 -154.46114 18.17217 21.81417 -6.18017 0.02221 0.01232 -0.02290 16.73731 9.79464 -31.81071 4.28120 12.01406 -0.66999 -79.33111 -8.98827 -78.19982 -31.78655 33.54438 -86.84066 16.66559 6.27258 -13.91942 25.90872 10.58880 -5.20354 82.57868 -34.49638 78.40221 3.76340 25.19900 83.49677 15.99536 9.41848 15.84856 30.12511 11.60539 -28.94470 -31.65094 -8.23807 63.95393 6.88514 0.01430 0.00566 3.27997 -8.52143 -74.49001 -5.94128 20.03155 -18.19622 33.18694 55.15147 -10.07850 -0.31063 0.07362 0.05196 -11.97764 52.09237 16.73193 
-865.39709 92.52552 -205.27524 7.83161 36.35490 -152.75888 17.46136 22.73772 -5.68866 0.02512 0.01504 -0.02307 20.83230 8.32934 -37.56965 6.28396 12.26807 -2.55372 -77.97295 -6.69528 -77.42068 -30.91551 30.97976 -87.51118 16.16558 6.63197 -14.17038 29.48019 10.10001 -7.57897 80.68551 -35.49250 76.66232 3.85595 24.73487 83.65202 17.80379 9.83955 13.07579 32.39765 12.58439 -31.64796 -32.37415 -9.15709 66.22032 5.50837 0.03134 0.00580 4.88193 -9.06614 -76.75948 -5.66653 16.66123 -23.68987 33.33475 63.63675 -5.71210 -3.32232 0.23560 0.00212 -3.72907 49.95059 8.87860 
-865.18030 92.70836 -205.31380 7.53549 38.64274 -150.99971 16.65843 23.34014 -5.21236 0.02729 0.01766 -0.02300 24.28971 7.36304 -42.70611 8.08678 12.79540 -4.15164 -77.34022 -5.13227 -76.79522 -30.74807 29.21592 -87.73837 15.74853 7.47296 -13.85344 32.94678 9.81154 -9.88610 78.53362 -36.61092 74.84509 4.50334 24.36069 84.03905 17.04930 9.14033 15.25830 34.42065 13.55426 -34.17316 -32.72298 -9.52699 67.91967 3.59024 0.03561 0.00641 6.63390 -9.63306 -78.25979 -6.61786 11.94103 -28.98837 34.87871 72.46703 -3.02438 -6.35742 0.26352 0.02779 3.70551 48.16829 1.40276 
-865.02222 93.02998 -205.41989 6.96178 40.82879 -149.18584 15.93149 23.72144 -4.81550 0.02920 0.02129 -0.02201 26.99424 8.30692 -46.59773 9.71043 13.63064 -5.44955 -77.24664 -3.99002 -76.24883 -30.91865 28.17862 -87.74139 15.27803 7.79422 -13.98295 36.34350 9.75837 -12.11078 76.19686 -37.84954 72.99851 5.42320 24.12756 84.54191 18.13813 9.60700 13.05914 36.19997 14.59940 -36.56552 -32.83914 -9.52229 69.14535 1.35436 0.03346 0.00626 8.33832 -10.23312 -79.56783 -8.93098 6.23095 -34.10217 41.46278 79.72884 -7.31216 -6.67922 0.04433 -0.02655 -0.94180 32.88967 1.03582 
-864.88135 93.32167 -205.55554 6.12802 42.96807 -147.34282 15.39553 23.97577 -4.50912 0.03032 0.02546 -0.02059 29.29995 10.89359 -49.34425 11.17236 14.77349 -6.49040 -77.54435 -3.16099 -75.71809 -31.24503 27.77836 -87.63179 14.95765 8.39881 -13.64688 39.63720 9.93851 -14.29145 73.79308 -39.14516 71.15622 6.43122 24.02656 85.19864 17.58501 9.28912 13.96466 37.74086 15.73351 -38.83250 -32.79111 -9.26070 70.02224 -1.03196 0.02835 0.00555 10.15761 -10.89753 -80.48492 -12.71943 -0.13396 -39.09831 70.63910 85.03248 -35.91159 -8.47890 0.06387 0.03987 -1.38688 24.03014 0.44385 
-864.73108 93.39478 -205.76360 5.01791 45.06559 -145.47830 15.05721 24.16283 -4.28137 0.02970 0.02947 -0.01913 31.36195 14.86833 -51.03555 12.38121 16.11579 -7.36042 -78.03552 -2.65707 -75.08144 -31.65034 27.90803 -87.48583 14.75320 8.64783 -13.79136 42.63231 10.24852 -16.39564 71.46895 -40.40379 69.26482 7.37225 24.07479 85.91076 18.13253 9.82896 12.49025 39.03896 16.93160 -40.95441 -32.65408 -8.77568 70.65232 -3.48940 0.02222 0.00424 12.04653 -11.62073 -81.16647 -18.14335 -6.73568 -43.99459 134.96892 84.68172 -100.95666 -9.33913 0.04367 0.02473 -3.80578 16.86405 2.28561 
-864.57520 93.18534 -206.14252 3.59349 47.09931 -143.55794 14.80656 24.29944 -4.13212 0.02638 0.03175 -0.01854 33.09605 20.01074 -51.65304 13.18729 17.47299 -8.14680 -78.52339 -2.52603 -74.20861 -32.10656 28.43374 -87.33981 14.72494 8.89491 -14.01808 45.02699 10.54897 -18.37757 69.36055 -41.50101 67.26524 8.17255 24.19359 86.65993 17.48456 10.18819 13.14947 40.11493 18.17765 -42.91806 -32.52273 -8.05058 71.07989 -6.02110 0.01623 0.00181 14.00625 -12.45663 -81.56842 -25.36340 -13.26339 -48.76287 144.62698 81.06859 -112.98413 -19.09468 -0.21581 0.69650 3.11162 11.15125 5.40721 
-864.43945 92.76435 -206.74310 1.82254 49.03318 -141.52824 14.48666 24.37692 -4.06481 0.02169 0.03266 -0.01832 34.79264 24.90504 -52.29100 13.58124 18.73987 -8.85081 -78.95227 -2.74466 -73.11535 -32.60996 29.21889 -87.21967 14.74928 8.88724 -14.64796 46.71715 10.81144 -20.16944 67.53860 -42.37296 65.26286 8.79814 24.32715 87.36874 17.47840 11.05766 12.46303 41.01585 19.47201 -44.72197 -32.48290 -7.07189 71.31153 -8.66276 0.01132 -0.00207 15.97754 -13.45164 -81.76255 -34.23507 -19.37503 -53.33433 136.35620 77.95142 -106.98972 -20.30078 -0.09293 0.14544 2.92336 6.44675 9.83825 
